<mxfile host="app.diagrams.net" agent="Mozilla/5.0 (Windows NT 10.0; Win64; x64) AppleWebKit/537.36 (KHTML, like Gecko) Chrome/137.0.0.0 Safari/537.36 Edg/137.0.0.0" version="27.1.5">
  <diagram id="C5RBs43oDa-KdzZeNtuy" name="Page-1">
    <mxGraphModel dx="2142" dy="1269" grid="1" gridSize="10" guides="1" tooltips="1" connect="1" arrows="1" fold="1" page="1" pageScale="1" pageWidth="1654" pageHeight="2336" math="0" shadow="0">
      <root>
        <mxCell id="WIyWlLk6GJQsqaUBKTNV-0" />
        <mxCell id="WIyWlLk6GJQsqaUBKTNV-1" parent="WIyWlLk6GJQsqaUBKTNV-0" />
        <mxCell id="KscxJVx1YY9tX2ofvZaf-3" value="" style="edgeStyle=orthogonalEdgeStyle;rounded=0;orthogonalLoop=1;jettySize=auto;html=1;" edge="1" parent="WIyWlLk6GJQsqaUBKTNV-1" source="KscxJVx1YY9tX2ofvZaf-1" target="KscxJVx1YY9tX2ofvZaf-2">
          <mxGeometry relative="1" as="geometry">
            <Array as="points">
              <mxPoint x="365" y="330" />
            </Array>
          </mxGeometry>
        </mxCell>
        <mxCell id="KscxJVx1YY9tX2ofvZaf-13" style="edgeStyle=orthogonalEdgeStyle;rounded=0;orthogonalLoop=1;jettySize=auto;html=1;exitX=1;exitY=0.5;exitDx=0;exitDy=0;entryX=0;entryY=0.5;entryDx=0;entryDy=0;" edge="1" parent="WIyWlLk6GJQsqaUBKTNV-1" source="KscxJVx1YY9tX2ofvZaf-1" target="KscxJVx1YY9tX2ofvZaf-7">
          <mxGeometry relative="1" as="geometry" />
        </mxCell>
        <mxCell id="KscxJVx1YY9tX2ofvZaf-14" style="edgeStyle=orthogonalEdgeStyle;rounded=0;orthogonalLoop=1;jettySize=auto;html=1;exitX=1;exitY=0.5;exitDx=0;exitDy=0;entryX=0;entryY=0.5;entryDx=0;entryDy=0;" edge="1" parent="WIyWlLk6GJQsqaUBKTNV-1" source="KscxJVx1YY9tX2ofvZaf-1" target="KscxJVx1YY9tX2ofvZaf-11">
          <mxGeometry relative="1" as="geometry">
            <Array as="points">
              <mxPoint x="360" y="430" />
              <mxPoint x="360" y="530" />
            </Array>
          </mxGeometry>
        </mxCell>
        <mxCell id="KscxJVx1YY9tX2ofvZaf-1" value="Planning" style="rounded=1;whiteSpace=wrap;html=1;" vertex="1" parent="WIyWlLk6GJQsqaUBKTNV-1">
          <mxGeometry x="210" y="410" width="90" height="40" as="geometry" />
        </mxCell>
        <mxCell id="KscxJVx1YY9tX2ofvZaf-5" value="" style="edgeStyle=orthogonalEdgeStyle;rounded=0;orthogonalLoop=1;jettySize=auto;html=1;" edge="1" parent="WIyWlLk6GJQsqaUBKTNV-1" source="KscxJVx1YY9tX2ofvZaf-2" target="KscxJVx1YY9tX2ofvZaf-4">
          <mxGeometry relative="1" as="geometry" />
        </mxCell>
        <mxCell id="KscxJVx1YY9tX2ofvZaf-2" value="ObejctiveAgent" style="whiteSpace=wrap;html=1;rounded=1;" vertex="1" parent="WIyWlLk6GJQsqaUBKTNV-1">
          <mxGeometry x="475" y="300" width="120" height="60" as="geometry" />
        </mxCell>
        <mxCell id="KscxJVx1YY9tX2ofvZaf-16" style="edgeStyle=orthogonalEdgeStyle;rounded=0;orthogonalLoop=1;jettySize=auto;html=1;exitX=1;exitY=0.5;exitDx=0;exitDy=0;entryX=0;entryY=0.5;entryDx=0;entryDy=0;" edge="1" parent="WIyWlLk6GJQsqaUBKTNV-1" source="KscxJVx1YY9tX2ofvZaf-4" target="KscxJVx1YY9tX2ofvZaf-15">
          <mxGeometry relative="1" as="geometry" />
        </mxCell>
        <mxCell id="KscxJVx1YY9tX2ofvZaf-4" value="ActionAgent" style="whiteSpace=wrap;html=1;rounded=1;" vertex="1" parent="WIyWlLk6GJQsqaUBKTNV-1">
          <mxGeometry x="660" y="300" width="120" height="60" as="geometry" />
        </mxCell>
        <mxCell id="KscxJVx1YY9tX2ofvZaf-6" value="" style="edgeStyle=orthogonalEdgeStyle;rounded=0;orthogonalLoop=1;jettySize=auto;html=1;" edge="1" parent="WIyWlLk6GJQsqaUBKTNV-1" source="KscxJVx1YY9tX2ofvZaf-7" target="KscxJVx1YY9tX2ofvZaf-8">
          <mxGeometry relative="1" as="geometry" />
        </mxCell>
        <mxCell id="KscxJVx1YY9tX2ofvZaf-7" value="ObejctiveAgent" style="whiteSpace=wrap;html=1;rounded=1;" vertex="1" parent="WIyWlLk6GJQsqaUBKTNV-1">
          <mxGeometry x="475" y="400" width="120" height="60" as="geometry" />
        </mxCell>
        <mxCell id="KscxJVx1YY9tX2ofvZaf-17" style="edgeStyle=orthogonalEdgeStyle;rounded=0;orthogonalLoop=1;jettySize=auto;html=1;exitX=1;exitY=0.5;exitDx=0;exitDy=0;entryX=0;entryY=0.5;entryDx=0;entryDy=0;" edge="1" parent="WIyWlLk6GJQsqaUBKTNV-1" source="KscxJVx1YY9tX2ofvZaf-8" target="KscxJVx1YY9tX2ofvZaf-15">
          <mxGeometry relative="1" as="geometry" />
        </mxCell>
        <mxCell id="KscxJVx1YY9tX2ofvZaf-8" value="ActionAgent" style="whiteSpace=wrap;html=1;rounded=1;" vertex="1" parent="WIyWlLk6GJQsqaUBKTNV-1">
          <mxGeometry x="660" y="400" width="120" height="60" as="geometry" />
        </mxCell>
        <mxCell id="KscxJVx1YY9tX2ofvZaf-10" value="" style="edgeStyle=orthogonalEdgeStyle;rounded=0;orthogonalLoop=1;jettySize=auto;html=1;" edge="1" parent="WIyWlLk6GJQsqaUBKTNV-1" source="KscxJVx1YY9tX2ofvZaf-11" target="KscxJVx1YY9tX2ofvZaf-12">
          <mxGeometry relative="1" as="geometry" />
        </mxCell>
        <mxCell id="KscxJVx1YY9tX2ofvZaf-11" value="ObejctiveAgent" style="whiteSpace=wrap;html=1;rounded=1;" vertex="1" parent="WIyWlLk6GJQsqaUBKTNV-1">
          <mxGeometry x="475" y="500" width="120" height="60" as="geometry" />
        </mxCell>
        <mxCell id="KscxJVx1YY9tX2ofvZaf-18" style="edgeStyle=orthogonalEdgeStyle;rounded=0;orthogonalLoop=1;jettySize=auto;html=1;exitX=1;exitY=0.5;exitDx=0;exitDy=0;entryX=0;entryY=0.5;entryDx=0;entryDy=0;" edge="1" parent="WIyWlLk6GJQsqaUBKTNV-1" source="KscxJVx1YY9tX2ofvZaf-12" target="KscxJVx1YY9tX2ofvZaf-15">
          <mxGeometry relative="1" as="geometry" />
        </mxCell>
        <mxCell id="KscxJVx1YY9tX2ofvZaf-12" value="ActionAgent" style="whiteSpace=wrap;html=1;rounded=1;" vertex="1" parent="WIyWlLk6GJQsqaUBKTNV-1">
          <mxGeometry x="660" y="500" width="120" height="60" as="geometry" />
        </mxCell>
        <mxCell id="KscxJVx1YY9tX2ofvZaf-20" style="edgeStyle=orthogonalEdgeStyle;rounded=0;orthogonalLoop=1;jettySize=auto;html=1;exitX=1;exitY=0.5;exitDx=0;exitDy=0;" edge="1" parent="WIyWlLk6GJQsqaUBKTNV-1" source="KscxJVx1YY9tX2ofvZaf-15">
          <mxGeometry relative="1" as="geometry">
            <mxPoint x="1040" y="430.3529411764706" as="targetPoint" />
          </mxGeometry>
        </mxCell>
        <mxCell id="KscxJVx1YY9tX2ofvZaf-15" value="MergerAgent" style="rounded=1;whiteSpace=wrap;html=1;" vertex="1" parent="WIyWlLk6GJQsqaUBKTNV-1">
          <mxGeometry x="860" y="400" width="120" height="60" as="geometry" />
        </mxCell>
        <mxCell id="KscxJVx1YY9tX2ofvZaf-23" value="" style="edgeStyle=orthogonalEdgeStyle;rounded=0;orthogonalLoop=1;jettySize=auto;html=1;" edge="1" parent="WIyWlLk6GJQsqaUBKTNV-1" source="KscxJVx1YY9tX2ofvZaf-21" target="KscxJVx1YY9tX2ofvZaf-22">
          <mxGeometry relative="1" as="geometry" />
        </mxCell>
        <mxCell id="KscxJVx1YY9tX2ofvZaf-21" value="CheckAgent" style="rounded=1;whiteSpace=wrap;html=1;" vertex="1" parent="WIyWlLk6GJQsqaUBKTNV-1">
          <mxGeometry x="1040" y="400" width="120" height="60" as="geometry" />
        </mxCell>
        <mxCell id="KscxJVx1YY9tX2ofvZaf-24" style="edgeStyle=orthogonalEdgeStyle;rounded=0;orthogonalLoop=1;jettySize=auto;html=1;exitX=0.5;exitY=0;exitDx=0;exitDy=0;entryX=0.5;entryY=0;entryDx=0;entryDy=0;" edge="1" parent="WIyWlLk6GJQsqaUBKTNV-1" source="KscxJVx1YY9tX2ofvZaf-22" target="KscxJVx1YY9tX2ofvZaf-21">
          <mxGeometry relative="1" as="geometry">
            <Array as="points">
              <mxPoint x="1300" y="340" />
              <mxPoint x="1100" y="340" />
            </Array>
          </mxGeometry>
        </mxCell>
        <mxCell id="KscxJVx1YY9tX2ofvZaf-25" style="edgeStyle=orthogonalEdgeStyle;rounded=0;orthogonalLoop=1;jettySize=auto;html=1;exitX=1;exitY=0.5;exitDx=0;exitDy=0;" edge="1" parent="WIyWlLk6GJQsqaUBKTNV-1" source="KscxJVx1YY9tX2ofvZaf-22">
          <mxGeometry relative="1" as="geometry">
            <mxPoint x="1480" y="430.3529411764706" as="targetPoint" />
          </mxGeometry>
        </mxCell>
        <mxCell id="KscxJVx1YY9tX2ofvZaf-22" value="RethinkAgent" style="whiteSpace=wrap;html=1;rounded=1;" vertex="1" parent="WIyWlLk6GJQsqaUBKTNV-1">
          <mxGeometry x="1240" y="400" width="120" height="60" as="geometry" />
        </mxCell>
        <mxCell id="KscxJVx1YY9tX2ofvZaf-26" value="Action List" style="rounded=0;whiteSpace=wrap;html=1;" vertex="1" parent="WIyWlLk6GJQsqaUBKTNV-1">
          <mxGeometry x="1450" y="400" width="120" height="60" as="geometry" />
        </mxCell>
        <mxCell id="KscxJVx1YY9tX2ofvZaf-27" value="Event" style="whiteSpace=wrap;html=1;" vertex="1" parent="WIyWlLk6GJQsqaUBKTNV-1">
          <mxGeometry x="20" y="710" width="120" height="60" as="geometry" />
        </mxCell>
        <mxCell id="KscxJVx1YY9tX2ofvZaf-32" style="edgeStyle=orthogonalEdgeStyle;rounded=0;orthogonalLoop=1;jettySize=auto;html=1;exitX=1;exitY=0.5;exitDx=0;exitDy=0;entryX=0;entryY=0.5;entryDx=0;entryDy=0;" edge="1" parent="WIyWlLk6GJQsqaUBKTNV-1" source="KscxJVx1YY9tX2ofvZaf-29" target="KscxJVx1YY9tX2ofvZaf-30">
          <mxGeometry relative="1" as="geometry" />
        </mxCell>
        <mxCell id="KscxJVx1YY9tX2ofvZaf-29" value="Replan" style="rounded=1;whiteSpace=wrap;html=1;" vertex="1" parent="WIyWlLk6GJQsqaUBKTNV-1">
          <mxGeometry x="210" y="660" width="90" height="40" as="geometry" />
        </mxCell>
        <mxCell id="KscxJVx1YY9tX2ofvZaf-33" style="edgeStyle=orthogonalEdgeStyle;rounded=0;orthogonalLoop=1;jettySize=auto;html=1;exitX=0.5;exitY=1;exitDx=0;exitDy=0;entryX=0.5;entryY=0;entryDx=0;entryDy=0;" edge="1" parent="WIyWlLk6GJQsqaUBKTNV-1" source="KscxJVx1YY9tX2ofvZaf-30" target="KscxJVx1YY9tX2ofvZaf-31">
          <mxGeometry relative="1" as="geometry" />
        </mxCell>
        <mxCell id="KscxJVx1YY9tX2ofvZaf-34" style="edgeStyle=orthogonalEdgeStyle;rounded=0;orthogonalLoop=1;jettySize=auto;html=1;exitX=1;exitY=0.5;exitDx=0;exitDy=0;" edge="1" parent="WIyWlLk6GJQsqaUBKTNV-1" source="KscxJVx1YY9tX2ofvZaf-30">
          <mxGeometry relative="1" as="geometry">
            <mxPoint x="690" y="680.3529411764707" as="targetPoint" />
          </mxGeometry>
        </mxCell>
        <mxCell id="KscxJVx1YY9tX2ofvZaf-30" value="FastThinkAgent" style="rounded=1;whiteSpace=wrap;html=1;" vertex="1" parent="WIyWlLk6GJQsqaUBKTNV-1">
          <mxGeometry x="440" y="650" width="120" height="60" as="geometry" />
        </mxCell>
        <mxCell id="KscxJVx1YY9tX2ofvZaf-36" style="edgeStyle=orthogonalEdgeStyle;rounded=0;orthogonalLoop=1;jettySize=auto;html=1;exitX=1;exitY=0.5;exitDx=0;exitDy=0;" edge="1" parent="WIyWlLk6GJQsqaUBKTNV-1" source="KscxJVx1YY9tX2ofvZaf-31">
          <mxGeometry relative="1" as="geometry">
            <mxPoint x="690" y="829.7647058823529" as="targetPoint" />
          </mxGeometry>
        </mxCell>
        <mxCell id="KscxJVx1YY9tX2ofvZaf-31" value="ReplanAgent" style="rounded=1;whiteSpace=wrap;html=1;" vertex="1" parent="WIyWlLk6GJQsqaUBKTNV-1">
          <mxGeometry x="440" y="800" width="120" height="60" as="geometry" />
        </mxCell>
        <mxCell id="KscxJVx1YY9tX2ofvZaf-35" value="Instant Action" style="rounded=0;whiteSpace=wrap;html=1;" vertex="1" parent="WIyWlLk6GJQsqaUBKTNV-1">
          <mxGeometry x="697" y="650" width="120" height="60" as="geometry" />
        </mxCell>
        <mxCell id="KscxJVx1YY9tX2ofvZaf-37" value="Action List" style="rounded=0;whiteSpace=wrap;html=1;" vertex="1" parent="WIyWlLk6GJQsqaUBKTNV-1">
          <mxGeometry x="697" y="800" width="120" height="60" as="geometry" />
        </mxCell>
        <mxCell id="KscxJVx1YY9tX2ofvZaf-38" value="Chat" style="rounded=1;whiteSpace=wrap;html=1;" vertex="1" parent="WIyWlLk6GJQsqaUBKTNV-1">
          <mxGeometry x="210" y="1568" width="90" height="40" as="geometry" />
        </mxCell>
        <mxCell id="KscxJVx1YY9tX2ofvZaf-46" style="edgeStyle=orthogonalEdgeStyle;rounded=0;orthogonalLoop=1;jettySize=auto;html=1;exitX=1;exitY=0.5;exitDx=0;exitDy=0;entryX=0;entryY=0.5;entryDx=0;entryDy=0;" edge="1" parent="WIyWlLk6GJQsqaUBKTNV-1" source="KscxJVx1YY9tX2ofvZaf-42" target="KscxJVx1YY9tX2ofvZaf-43">
          <mxGeometry relative="1" as="geometry" />
        </mxCell>
        <mxCell id="KscxJVx1YY9tX2ofvZaf-42" value="ObejctiveAgent" style="whiteSpace=wrap;html=1;rounded=1;" vertex="1" parent="WIyWlLk6GJQsqaUBKTNV-1">
          <mxGeometry x="440" y="950" width="100" height="50" as="geometry" />
        </mxCell>
        <mxCell id="KscxJVx1YY9tX2ofvZaf-47" style="edgeStyle=orthogonalEdgeStyle;rounded=0;orthogonalLoop=1;jettySize=auto;html=1;exitX=1;exitY=0.5;exitDx=0;exitDy=0;entryX=0;entryY=0.5;entryDx=0;entryDy=0;" edge="1" parent="WIyWlLk6GJQsqaUBKTNV-1" source="KscxJVx1YY9tX2ofvZaf-43" target="KscxJVx1YY9tX2ofvZaf-44">
          <mxGeometry relative="1" as="geometry" />
        </mxCell>
        <mxCell id="KscxJVx1YY9tX2ofvZaf-43" value="ActionAgent" style="whiteSpace=wrap;html=1;rounded=1;" vertex="1" parent="WIyWlLk6GJQsqaUBKTNV-1">
          <mxGeometry x="600" y="950" width="120" height="50" as="geometry" />
        </mxCell>
        <mxCell id="KscxJVx1YY9tX2ofvZaf-48" style="edgeStyle=orthogonalEdgeStyle;rounded=0;orthogonalLoop=1;jettySize=auto;html=1;exitX=1;exitY=0.5;exitDx=0;exitDy=0;entryX=0;entryY=0.5;entryDx=0;entryDy=0;" edge="1" parent="WIyWlLk6GJQsqaUBKTNV-1" source="KscxJVx1YY9tX2ofvZaf-44" target="KscxJVx1YY9tX2ofvZaf-45">
          <mxGeometry relative="1" as="geometry" />
        </mxCell>
        <mxCell id="KscxJVx1YY9tX2ofvZaf-44" value="CheckAgent" style="rounded=1;whiteSpace=wrap;html=1;" vertex="1" parent="WIyWlLk6GJQsqaUBKTNV-1">
          <mxGeometry x="780" y="950" width="120" height="50" as="geometry" />
        </mxCell>
        <mxCell id="KscxJVx1YY9tX2ofvZaf-45" value="RethinkAgent" style="whiteSpace=wrap;html=1;rounded=1;" vertex="1" parent="WIyWlLk6GJQsqaUBKTNV-1">
          <mxGeometry x="970" y="950" width="120" height="50" as="geometry" />
        </mxCell>
        <mxCell id="KscxJVx1YY9tX2ofvZaf-51" value="" style="endArrow=none;dashed=1;html=1;rounded=0;entryX=0;entryY=1;entryDx=0;entryDy=0;exitX=0;exitY=0.25;exitDx=0;exitDy=0;" edge="1" parent="WIyWlLk6GJQsqaUBKTNV-1" source="KscxJVx1YY9tX2ofvZaf-42" target="KscxJVx1YY9tX2ofvZaf-31">
          <mxGeometry width="50" height="50" relative="1" as="geometry">
            <mxPoint x="420" y="930" as="sourcePoint" />
            <mxPoint x="470" y="880" as="targetPoint" />
          </mxGeometry>
        </mxCell>
        <mxCell id="KscxJVx1YY9tX2ofvZaf-52" value="" style="endArrow=none;dashed=1;html=1;rounded=0;entryX=1;entryY=1;entryDx=0;entryDy=0;exitX=1;exitY=0;exitDx=0;exitDy=0;" edge="1" parent="WIyWlLk6GJQsqaUBKTNV-1" source="KscxJVx1YY9tX2ofvZaf-45" target="KscxJVx1YY9tX2ofvZaf-31">
          <mxGeometry width="50" height="50" relative="1" as="geometry">
            <mxPoint x="590" y="993" as="sourcePoint" />
            <mxPoint x="590" y="890" as="targetPoint" />
          </mxGeometry>
        </mxCell>
        <mxCell id="KscxJVx1YY9tX2ofvZaf-62" style="edgeStyle=orthogonalEdgeStyle;rounded=0;orthogonalLoop=1;jettySize=auto;html=1;exitX=0.5;exitY=0;exitDx=0;exitDy=0;entryX=0.5;entryY=1;entryDx=0;entryDy=0;" edge="1" parent="WIyWlLk6GJQsqaUBKTNV-1" source="KscxJVx1YY9tX2ofvZaf-53" target="KscxJVx1YY9tX2ofvZaf-54">
          <mxGeometry relative="1" as="geometry" />
        </mxCell>
        <mxCell id="KscxJVx1YY9tX2ofvZaf-53" value="TopicAgent" style="rounded=1;whiteSpace=wrap;html=1;" vertex="1" parent="WIyWlLk6GJQsqaUBKTNV-1">
          <mxGeometry x="420" y="1660" width="120" height="60" as="geometry" />
        </mxCell>
        <mxCell id="KscxJVx1YY9tX2ofvZaf-56" style="edgeStyle=orthogonalEdgeStyle;rounded=0;orthogonalLoop=1;jettySize=auto;html=1;exitX=1;exitY=0.5;exitDx=0;exitDy=0;" edge="1" parent="WIyWlLk6GJQsqaUBKTNV-1" source="KscxJVx1YY9tX2ofvZaf-54">
          <mxGeometry relative="1" as="geometry">
            <mxPoint x="650" y="1518.2857142857144" as="targetPoint" />
          </mxGeometry>
        </mxCell>
        <mxCell id="KscxJVx1YY9tX2ofvZaf-54" value="DialogAgent" style="rounded=1;whiteSpace=wrap;html=1;" vertex="1" parent="WIyWlLk6GJQsqaUBKTNV-1">
          <mxGeometry x="420" y="1488" width="120" height="60" as="geometry" />
        </mxCell>
        <mxCell id="KscxJVx1YY9tX2ofvZaf-58" style="edgeStyle=orthogonalEdgeStyle;rounded=0;orthogonalLoop=1;jettySize=auto;html=1;exitX=1;exitY=0.5;exitDx=0;exitDy=0;" edge="1" parent="WIyWlLk6GJQsqaUBKTNV-1" source="KscxJVx1YY9tX2ofvZaf-57">
          <mxGeometry relative="1" as="geometry">
            <mxPoint x="880" y="1518.2857142857144" as="targetPoint" />
          </mxGeometry>
        </mxCell>
        <mxCell id="KscxJVx1YY9tX2ofvZaf-57" value="ImpressionAgent" style="rounded=1;whiteSpace=wrap;html=1;" vertex="1" parent="WIyWlLk6GJQsqaUBKTNV-1">
          <mxGeometry x="650" y="1488" width="120" height="60" as="geometry" />
        </mxCell>
        <mxCell id="KscxJVx1YY9tX2ofvZaf-60" style="edgeStyle=orthogonalEdgeStyle;rounded=0;orthogonalLoop=1;jettySize=auto;html=1;exitX=0.5;exitY=0;exitDx=0;exitDy=0;entryX=0.5;entryY=0;entryDx=0;entryDy=0;" edge="1" parent="WIyWlLk6GJQsqaUBKTNV-1" source="KscxJVx1YY9tX2ofvZaf-59" target="KscxJVx1YY9tX2ofvZaf-54">
          <mxGeometry relative="1" as="geometry">
            <Array as="points">
              <mxPoint x="940" y="1420" />
              <mxPoint x="480" y="1420" />
            </Array>
          </mxGeometry>
        </mxCell>
        <mxCell id="KscxJVx1YY9tX2ofvZaf-59" value="IntimacyAgent" style="rounded=1;whiteSpace=wrap;html=1;" vertex="1" parent="WIyWlLk6GJQsqaUBKTNV-1">
          <mxGeometry x="880" y="1488" width="120" height="60" as="geometry" />
        </mxCell>
        <mxCell id="KscxJVx1YY9tX2ofvZaf-88" style="edgeStyle=orthogonalEdgeStyle;rounded=0;orthogonalLoop=1;jettySize=auto;html=1;exitX=1;exitY=0.5;exitDx=0;exitDy=0;entryX=0;entryY=0.5;entryDx=0;entryDy=0;" edge="1" parent="WIyWlLk6GJQsqaUBKTNV-1" source="KscxJVx1YY9tX2ofvZaf-72" target="KscxJVx1YY9tX2ofvZaf-74">
          <mxGeometry relative="1" as="geometry" />
        </mxCell>
        <mxCell id="KscxJVx1YY9tX2ofvZaf-72" value="Command" style="rounded=1;whiteSpace=wrap;html=1;" vertex="1" parent="WIyWlLk6GJQsqaUBKTNV-1">
          <mxGeometry x="210" y="1070" width="90" height="40" as="geometry" />
        </mxCell>
        <mxCell id="KscxJVx1YY9tX2ofvZaf-75" style="edgeStyle=orthogonalEdgeStyle;rounded=0;orthogonalLoop=1;jettySize=auto;html=1;exitX=0.5;exitY=1;exitDx=0;exitDy=0;" edge="1" parent="WIyWlLk6GJQsqaUBKTNV-1" source="KscxJVx1YY9tX2ofvZaf-74">
          <mxGeometry relative="1" as="geometry">
            <mxPoint x="489.11111111111086" y="1180" as="targetPoint" />
          </mxGeometry>
        </mxCell>
        <mxCell id="KscxJVx1YY9tX2ofvZaf-78" value="" style="edgeStyle=orthogonalEdgeStyle;rounded=0;orthogonalLoop=1;jettySize=auto;html=1;" edge="1" parent="WIyWlLk6GJQsqaUBKTNV-1" source="KscxJVx1YY9tX2ofvZaf-74" target="KscxJVx1YY9tX2ofvZaf-77">
          <mxGeometry relative="1" as="geometry" />
        </mxCell>
        <mxCell id="KscxJVx1YY9tX2ofvZaf-79" style="edgeStyle=orthogonalEdgeStyle;rounded=0;orthogonalLoop=1;jettySize=auto;html=1;exitX=1;exitY=0.5;exitDx=0;exitDy=0;entryX=0;entryY=0.5;entryDx=0;entryDy=0;" edge="1" parent="WIyWlLk6GJQsqaUBKTNV-1" source="KscxJVx1YY9tX2ofvZaf-74" target="KscxJVx1YY9tX2ofvZaf-80">
          <mxGeometry relative="1" as="geometry">
            <mxPoint x="610" y="1220" as="targetPoint" />
          </mxGeometry>
        </mxCell>
        <mxCell id="KscxJVx1YY9tX2ofvZaf-74" value="CheckAgent" style="rounded=1;whiteSpace=wrap;html=1;" vertex="1" parent="WIyWlLk6GJQsqaUBKTNV-1">
          <mxGeometry x="430" y="1060" width="120" height="60" as="geometry" />
        </mxCell>
        <mxCell id="KscxJVx1YY9tX2ofvZaf-76" value="Instant Response" style="whiteSpace=wrap;html=1;" vertex="1" parent="WIyWlLk6GJQsqaUBKTNV-1">
          <mxGeometry x="430" y="1190" width="120" height="60" as="geometry" />
        </mxCell>
        <mxCell id="KscxJVx1YY9tX2ofvZaf-77" value="WriterAgent" style="rounded=1;whiteSpace=wrap;html=1;" vertex="1" parent="WIyWlLk6GJQsqaUBKTNV-1">
          <mxGeometry x="670" y="1060" width="120" height="60" as="geometry" />
        </mxCell>
        <mxCell id="KscxJVx1YY9tX2ofvZaf-81" style="edgeStyle=orthogonalEdgeStyle;rounded=0;orthogonalLoop=1;jettySize=auto;html=1;exitX=1;exitY=0.5;exitDx=0;exitDy=0;" edge="1" parent="WIyWlLk6GJQsqaUBKTNV-1" source="KscxJVx1YY9tX2ofvZaf-80">
          <mxGeometry relative="1" as="geometry">
            <mxPoint x="860" y="1221" as="targetPoint" />
          </mxGeometry>
        </mxCell>
        <mxCell id="KscxJVx1YY9tX2ofvZaf-80" value="PlanAgent" style="rounded=1;whiteSpace=wrap;html=1;" vertex="1" parent="WIyWlLk6GJQsqaUBKTNV-1">
          <mxGeometry x="670" y="1190" width="120" height="60" as="geometry" />
        </mxCell>
        <mxCell id="KscxJVx1YY9tX2ofvZaf-84" style="edgeStyle=orthogonalEdgeStyle;rounded=0;orthogonalLoop=1;jettySize=auto;html=1;exitX=1;exitY=0.5;exitDx=0;exitDy=0;" edge="1" parent="WIyWlLk6GJQsqaUBKTNV-1" source="KscxJVx1YY9tX2ofvZaf-82" target="KscxJVx1YY9tX2ofvZaf-83">
          <mxGeometry relative="1" as="geometry" />
        </mxCell>
        <mxCell id="KscxJVx1YY9tX2ofvZaf-82" value="CheckAgent" style="rounded=1;whiteSpace=wrap;html=1;" vertex="1" parent="WIyWlLk6GJQsqaUBKTNV-1">
          <mxGeometry x="860" y="1190" width="120" height="60" as="geometry" />
        </mxCell>
        <mxCell id="KscxJVx1YY9tX2ofvZaf-85" style="edgeStyle=orthogonalEdgeStyle;rounded=0;orthogonalLoop=1;jettySize=auto;html=1;exitX=0.5;exitY=0;exitDx=0;exitDy=0;entryX=0.5;entryY=0;entryDx=0;entryDy=0;" edge="1" parent="WIyWlLk6GJQsqaUBKTNV-1" source="KscxJVx1YY9tX2ofvZaf-83" target="KscxJVx1YY9tX2ofvZaf-82">
          <mxGeometry relative="1" as="geometry">
            <Array as="points">
              <mxPoint x="1120" y="1140" />
              <mxPoint x="920" y="1140" />
            </Array>
          </mxGeometry>
        </mxCell>
        <mxCell id="KscxJVx1YY9tX2ofvZaf-86" style="edgeStyle=orthogonalEdgeStyle;rounded=0;orthogonalLoop=1;jettySize=auto;html=1;exitX=1;exitY=0.5;exitDx=0;exitDy=0;" edge="1" parent="WIyWlLk6GJQsqaUBKTNV-1" source="KscxJVx1YY9tX2ofvZaf-83">
          <mxGeometry relative="1" as="geometry">
            <mxPoint x="1250" y="1221" as="targetPoint" />
          </mxGeometry>
        </mxCell>
        <mxCell id="KscxJVx1YY9tX2ofvZaf-83" value="RethinkAgent" style="whiteSpace=wrap;html=1;rounded=1;" vertex="1" parent="WIyWlLk6GJQsqaUBKTNV-1">
          <mxGeometry x="1060" y="1190" width="120" height="60" as="geometry" />
        </mxCell>
        <mxCell id="KscxJVx1YY9tX2ofvZaf-87" value="Action List" style="rounded=0;whiteSpace=wrap;html=1;" vertex="1" parent="WIyWlLk6GJQsqaUBKTNV-1">
          <mxGeometry x="1250" y="1190" width="120" height="60" as="geometry" />
        </mxCell>
        <mxCell id="KscxJVx1YY9tX2ofvZaf-89" style="edgeStyle=orthogonalEdgeStyle;rounded=0;orthogonalLoop=1;jettySize=auto;html=1;exitX=1;exitY=0.5;exitDx=0;exitDy=0;entryX=0.5;entryY=1;entryDx=0;entryDy=0;" edge="1" parent="WIyWlLk6GJQsqaUBKTNV-1" source="KscxJVx1YY9tX2ofvZaf-53" target="KscxJVx1YY9tX2ofvZaf-53">
          <mxGeometry relative="1" as="geometry">
            <Array as="points">
              <mxPoint x="600" y="1690" />
              <mxPoint x="600" y="1780" />
              <mxPoint x="480" y="1780" />
            </Array>
          </mxGeometry>
        </mxCell>
        <mxCell id="KscxJVx1YY9tX2ofvZaf-100" value="" style="group" vertex="1" connectable="0" parent="WIyWlLk6GJQsqaUBKTNV-1">
          <mxGeometry x="133.5" y="50" width="1413" height="160" as="geometry" />
        </mxCell>
        <mxCell id="KscxJVx1YY9tX2ofvZaf-90" value="&lt;div&gt;&lt;br&gt;&lt;/div&gt;" style="rounded=0;whiteSpace=wrap;html=1;align=center;" vertex="1" parent="KscxJVx1YY9tX2ofvZaf-100">
          <mxGeometry width="1413" height="160" as="geometry" />
        </mxCell>
        <mxCell id="KscxJVx1YY9tX2ofvZaf-91" value="&lt;font style=&quot;font-size: 36px;&quot;&gt;Environment&lt;/font&gt;" style="text;html=1;align=center;verticalAlign=middle;whiteSpace=wrap;rounded=0;" vertex="1" parent="KscxJVx1YY9tX2ofvZaf-100">
          <mxGeometry x="577.1408450704225" y="8.88888888888889" width="258.71830985915494" height="53.33333333333333" as="geometry" />
        </mxCell>
        <mxCell id="KscxJVx1YY9tX2ofvZaf-94" value="AMM Market" style="rounded=1;whiteSpace=wrap;html=1;" vertex="1" parent="KscxJVx1YY9tX2ofvZaf-100">
          <mxGeometry x="321.40774647887326" y="75.55555555555556" width="119.40845070422536" height="53.33333333333333" as="geometry" />
        </mxCell>
        <mxCell id="KscxJVx1YY9tX2ofvZaf-97" value="Visibale Buildings" style="rounded=1;whiteSpace=wrap;html=1;" vertex="1" parent="KscxJVx1YY9tX2ofvZaf-100">
          <mxGeometry x="530.3725352112676" y="75.55555555555556" width="119.40845070422536" height="53.33333333333333" as="geometry" />
        </mxCell>
        <mxCell id="KscxJVx1YY9tX2ofvZaf-98" value="Chat logs" style="rounded=1;whiteSpace=wrap;html=1;" vertex="1" parent="KscxJVx1YY9tX2ofvZaf-100">
          <mxGeometry x="739.337323943662" y="75.55555555555556" width="119.40845070422536" height="53.33333333333333" as="geometry" />
        </mxCell>
        <mxCell id="KscxJVx1YY9tX2ofvZaf-99" value="Action Logs" style="rounded=1;whiteSpace=wrap;html=1;" vertex="1" parent="KscxJVx1YY9tX2ofvZaf-100">
          <mxGeometry x="948.3021126760564" y="75.55555555555556" width="119.40845070422536" height="53.33333333333333" as="geometry" />
        </mxCell>
      </root>
    </mxGraphModel>
  </diagram>
</mxfile>
